<?xml version="1.0" standalone="no"?>
<!DOCTYPE svg PUBLIC "-//W3C//DTD SVG 20010904//EN"
 "http://www.w3.org/TR/2001/REC-SVG-20010904/DTD/svg10.dtd">
<svg version="1.0" xmlns="http://www.w3.org/2000/svg"
 width="105.000000pt" height="108.000000pt" viewBox="0 0 105.000000 108.000000"
 preserveAspectRatio="xMidYMid meet">

<g transform="translate(0.000000,108.000000) scale(0.100000,-0.100000)"
fill="#000000" stroke="none">
<path d="M359 1007 c-129 -37 -229 -143 -246 -262 -5 -38 -3 -45 11 -45 9 0
16 8 16 18 0 50 36 119 89 173 66 66 124 89 222 89 132 0 247 -90 284 -223 12
-42 15 -76 10 -111 -7 -60 -45 -144 -79 -175 l-24 -22 -117 131 c-65 72 -123
129 -129 127 -8 -3 -12 -94 -14 -305 l-2 -302 269 0 c176 0 272 4 276 10 5 9
-96 132 -233 281 l-24 27 35 46 c115 149 99 339 -38 464 -83 76 -205 107 -306
79z m157 -468 c49 -55 91 -105 92 -110 6 -16 -85 -49 -140 -52 l-53 -2 1 33
c3 176 5 232 8 232 2 0 44 -45 92 -101z m238 -268 c64 -71 116 -132 116 -135
0 -3 -104 -6 -230 -6 l-231 0 3 102 3 103 58 7 c33 4 82 18 110 32 29 13 53
25 54 25 1 1 54 -57 117 -128z"/>
</g>
</svg>
